<?xml version="1.0" encoding="UTF-8"?>
<svg version="1.1" xmlns="http://www.w3.org/2000/svg" width="500" height="500">
<path d="M0 0 C165 0 330 0 500 0 C500 165 500 330 500 500 C335 500 170 500 0 500 C0 335 0 170 0 0 Z " fill="#FEFEFE" transform="translate(0,0)"/>
<path d="M0 0 C38.12544741 28.81628908 65.45235869 85.2327934 72.2878418 131.96801758 C73.01030861 137.79591655 73.18320729 143.56936399 73.1875 149.4375 C73.19974609 150.31470703 73.21199219 151.19191406 73.22460938 152.09570312 C73.25822265 167.30011002 68.50105322 181.10372328 59 193 C58.42765625 193.74765625 57.8553125 194.4953125 57.265625 195.265625 C32.78476724 225.18667337 -13.11747066 231.26609193 -49.12963867 235.05078125 C-74.3602103 237.40250482 -99.18815571 238.44952977 -120.25 222.125 C-127.07705663 216.37186239 -133.04024996 210.43962505 -138 203 C-136.56966241 200.13932481 -134.84100688 200.00603729 -131.875 198.875 C-127.68623406 197.20834313 -123.80466914 195.37063047 -119.91259766 193.09521484 C-97.11385325 179.92412923 -64.54202451 174.46232327 -38.96875 180.2109375 C-34.57428168 181.15165617 -30.1560337 181.57063582 -25.6875 182 C-17.76929865 182.79897764 -10.39084727 183.87833261 -3.4375 188 C3.1909727 191.85656593 9.33278248 193.66096703 17 193 C20.25765755 191.33433664 20.25765755 191.33433664 20.5625 188.3125 C19.78020192 183.70563352 17.34973337 181.15013786 14 178 C13.34 177.67 12.68 177.34 12 177 C12 176.34 12 175.68 12 175 C16.8532426 175.39139053 21.09146141 175.94664564 25.6875 177.5625 C31.94838522 179.55772716 38.49591439 179.83553745 45 179 C47.39647405 177.76875941 47.39647405 177.76875941 49 176 C49.48924316 173.20432481 49.51829172 171.74402853 47.87890625 169.390625 C45.16541535 167.38230325 42.84955587 167.49757587 39.5 167.25 C32.02236762 166.52022483 25.47670227 164.24620317 18.5234375 161.47558594 C14.33633106 159.81243325 10.51623128 158.52749581 6 158 C5.67 156.35 5.34 154.7 5 153 C10.17788808 147.58675337 13.77108001 146.26065268 21.23046875 145.71484375 C24.99529021 144.74310563 26.03493769 143.3071678 28 140 C30.2122987 129.29764588 26.01408557 121.31070169 20.4296875 112.53125 C15.49201661 105.56603309 8.6546482 98.92221601 0.12109375 97.01171875 C-5.51912786 95.68734058 -10.22508097 94.57780887 -13.66015625 89.58886719 C-16.87085401 83.53904219 -19.31971591 77.17666482 -21.82128906 70.80957031 C-25.15147746 62.87174759 -30.08956944 54.95521528 -38 51 C-38 50.34 -38 49.68 -38 49 C-38.94875 48.855625 -39.8975 48.71125 -40.875 48.5625 C-44 48 -44 48 -46 47 C-47.62268991 46.90388248 -49.24947306 46.87017648 -50.875 46.875 C-51.73867187 46.87242187 -52.60234375 46.86984375 -53.4921875 46.8671875 C-55.80665971 46.98976079 -57.78289116 47.35033555 -60 48 C-60.79664063 47.02546875 -60.79664063 47.02546875 -61.609375 46.03125 C-62.31578125 45.1959375 -63.0221875 44.360625 -63.75 43.5 C-64.44609375 42.6646875 -65.1421875 41.829375 -65.859375 40.96875 C-68.00597415 38.54870658 -68.00597415 38.54870658 -72 39 C-75.34963974 46.39712108 -76.40017032 53.04754573 -74.15625 60.984375 C-68.85344188 74.81467185 -58.71048538 84.81541656 -48.59057617 95.25170898 C-44.05178051 100.24055254 -44.05178051 100.24055254 -43.8125 103.75 C-43.874375 104.4925 -43.93625 105.235 -44 106 C-50.13349005 107.79654017 -55.55210617 108.2575501 -61.921875 108.16015625 C-62.86194397 108.15495468 -63.80201294 108.14975311 -64.77056885 108.14439392 C-67.76387572 108.1267096 -70.75682781 108.09566065 -73.75 108.0625 C-85.17119064 107.95396943 -96.5720214 107.86697689 -107.984375 108.40234375 C-108.78566833 108.43763687 -109.58696167 108.47292999 -110.41253662 108.5092926 C-133.66770723 109.75712424 -155.89883637 121.68482057 -171.51171875 138.6015625 C-173 140 -173 140 -175 140 C-175.65264429 137.98135603 -176.29678746 135.95996273 -176.9375 133.9375 C-177.29714844 132.81214844 -177.65679687 131.68679687 -178.02734375 130.52734375 C-182.6347696 113.81848615 -181.95776026 93.88405758 -175 78 C-174.72124023 77.34386719 -174.44248047 76.68773437 -174.15527344 76.01171875 C-157.71179918 37.91675957 -115.89993383 8.82914141 -78.3984375 -6.42578125 C-52.18097448 -16.2891178 -23.91093868 -15.87336576 0 0 Z " fill="#FF914E" transform="translate(306,92)"/>
<path d="M0 0 C5.12941575 2.99925971 7.42907041 6.22471123 9.3125 11.875 C10.5813272 27.15530468 10.5813272 27.15530468 5.80078125 33.36328125 C0.38789699 38.86140778 -5.4984897 40.94753829 -13.0625 41.1875 C-19.25028756 41.02819382 -24.06477482 40.31948172 -28.69921875 36 C-34.79305515 29.27576673 -35.12889162 23.54971676 -34.9609375 14.77734375 C-34.60558382 9.70593907 -33.99542996 7.69184226 -30.6875 3.875 C-22.20567677 -3.4309341 -10.23707729 -4.76711659 0 0 Z " fill="#575757" transform="translate(376.6875,355.125)"/>
<path d="M0 0 C7.239375 -0.0928125 7.239375 -0.0928125 14.625 -0.1875 C16.89238037 -0.22846802 16.89238037 -0.22846802 19.20556641 -0.27026367 C21.01033447 -0.28150269 21.01033447 -0.28150269 22.8515625 -0.29296875 C24.07697754 -0.3086792 25.30239258 -0.32438965 26.56494141 -0.34057617 C31.06182474 0.10527687 34.25626052 1.69496031 37.84765625 4.3828125 C40.24015148 7.74041598 39.5914703 12.09007005 39 16 C37 19.125 37 19.125 35 21 C35.825 21.61875 36.65 22.2375 37.5 22.875 C40.63796244 26.04001384 40.66895409 29.11107248 40.859375 33.40234375 C39.73300317 36.8070586 38.40207613 38.58592025 35.59423828 40.81567383 C29.66330062 43.5232758 22.43998118 42.58497097 16.0625 42.375 C8.1115625 42.189375 8.1115625 42.189375 0 42 C0 28.14 0 14.28 0 0 Z " fill="#5A5A5A" transform="translate(162,353)"/>
<path d="M0 0 C11.88 0 23.76 0 36 0 C36 3.3 36 6.6 36 10 C28.74 10 21.48 10 14 10 C14 11.98 14 13.96 14 16 C20.27 16 26.54 16 33 16 C33 19.3 33 22.6 33 26 C26.73 26 20.46 26 14 26 C14 27.98 14 29.96 14 32 C21.59 32 29.18 32 37 32 C37 35.3 37 38.6 37 42 C24.79 42 12.58 42 0 42 C0 28.14 0 14.28 0 0 Z " fill="#5B5B5B" transform="translate(249,353)"/>
<path d="M0 0 C4.29 0 8.58 0 13 0 C13 4.95 13 9.9 13 15 C17.95 15 22.9 15 28 15 C28 10.05 28 5.1 28 0 C32.29 0 36.58 0 41 0 C41 13.53 41 27.06 41 41 C36.71 41 32.42 41 28 41 C28 35.72 28 30.44 28 25 C23.05 25 18.1 25 13 25 C13 30.28 13 35.56 13 41 C8.71 41 4.42 41 0 41 C0 27.47 0 13.94 0 0 Z " fill="#545454" transform="translate(293,354)"/>
<path d="M0 0 C1.39456452 0.00667256 2.78911118 0.01863093 4.18359375 0.03515625 C4.89451172 0.03966797 5.60542969 0.04417969 6.33789062 0.04882812 C8.09899388 0.06064761 9.86005411 0.07858362 11.62109375 0.09765625 C15.28508234 8.70482406 18.68244852 17.38928891 21.93359375 26.16015625 C22.38798828 27.36865234 22.84238281 28.57714844 23.31054688 29.82226562 C23.73916016 30.97662109 24.16777344 32.13097656 24.609375 33.3203125 C24.99649658 34.35937744 25.38361816 35.39844238 25.7824707 36.46899414 C26.62109375 39.09765625 26.62109375 39.09765625 26.62109375 42.09765625 C22.00109375 42.09765625 17.38109375 42.09765625 12.62109375 42.09765625 C12.29109375 40.11765625 11.96109375 38.13765625 11.62109375 36.09765625 C6.67109375 36.42765625 1.72109375 36.75765625 -3.37890625 37.09765625 C-3.87390625 39.57265625 -3.87390625 39.57265625 -4.37890625 42.09765625 C-8.99890625 42.09765625 -13.61890625 42.09765625 -18.37890625 42.09765625 C-17.25376251 35.34679383 -17.25376251 35.34679383 -16.08789062 32.21948242 C-15.83092407 31.52243698 -15.57395752 30.82539154 -15.3092041 30.10722351 C-15.03314331 29.375746 -14.75708252 28.64426849 -14.47265625 27.890625 C-14.18789429 27.12462479 -13.90313232 26.35862457 -13.60974121 25.56941223 C-13.01045809 23.96076319 -12.4085644 22.35308452 -11.80419922 20.74633789 C-10.87616547 18.27786605 -9.95699531 15.80622787 -9.0390625 13.33398438 C-8.45494253 11.76933872 -7.87032477 10.2048788 -7.28515625 8.640625 C-6.87106506 7.52822701 -6.87106506 7.52822701 -6.4486084 6.39335632 C-4.08166064 0.11796707 -4.08166064 0.11796707 0 0 Z " fill="#585858" transform="translate(130.37890625,352.90234375)"/>
<path d="M0 0 C6.249375 -0.0928125 6.249375 -0.0928125 12.625 -0.1875 C13.92775879 -0.21481201 15.23051758 -0.24212402 16.57275391 -0.27026367 C23.86055756 -0.32273044 28.63722723 0.09165598 34.3125 5 C37.34053656 8.58878407 37.33630242 12.2212875 37.28515625 16.71484375 C36.72881312 21.17320993 34.20582561 23.94033507 30.9375 26.8125 C25.69547368 30.02535484 19.94410235 29.06391508 14 29 C14 33.29 14 37.58 14 42 C9.38 42 4.76 42 0 42 C0 28.14 0 14.28 0 0 Z " fill="#5B5B5B" transform="translate(393,353)"/>
<path d="M0 0 C4.62 0 9.24 0 14 0 C14 10.23 14 20.46 14 31 C20.93 31 27.86 31 35 31 C35 34.63 35 38.26 35 42 C23.45 42 11.9 42 0 42 C0 28.14 0 14.28 0 0 Z " fill="#5C5C5C" transform="translate(209,353)"/>
<path d="M0 0 C13.2 0 26.4 0 40 0 C40 3.3 40 6.6 40 10 C35.71 10 31.42 10 27 10 C27 20.23 27 30.46 27 41 C22.71 41 18.42 41 14 41 C14 30.77 14 20.54 14 10 C9.38 10 4.76 10 0 10 C0 6.7 0 3.4 0 0 Z " fill="#545454" transform="translate(69,354)"/>
<path d="M0 0 C2.75271689 0.76032704 4.46606196 2.23576015 6.08984375 4.55859375 C7.77958991 8.49873917 7.687349 12.36707669 6.9375 16.53515625 C5.5940673 19.64067277 4.04217254 21.98281998 0.9375 23.53515625 C-2.89441838 23.96092496 -4.59199683 23.8383694 -7.875 21.72265625 C-11.12244968 18.47520657 -11.27991943 15.58453375 -11.4375 11.16015625 C-11.38496492 7.19375803 -11.22559222 5.79508447 -9.0625 2.34765625 C-5.77252679 0.3599641 -3.79622931 -0.2804033 0 0 Z " fill="#F8F8F8" transform="translate(366.0625,362.46484375)"/>
<path d="M0 0 C1.79133978 -0.05391993 3.58313899 -0.09275571 5.375 -0.125 C6.37273437 -0.14820313 7.37046875 -0.17140625 8.3984375 -0.1953125 C11 0 11 0 13 2 C12.67 3.65 12.34 5.3 12 7 C8.04 7 4.08 7 0 7 C0 4.69 0 2.38 0 0 Z " fill="#F7F7F7" transform="translate(176,378)"/>
<path d="M0 0 C3.63 0 7.26 0 11 0 C11.33 1.65 11.66 3.3 12 5 C10 7 10 7 7.6171875 7.1953125 C6.71226562 7.17210937 5.80734375 7.14890625 4.875 7.125 C3.50988281 7.09792969 3.50988281 7.09792969 2.1171875 7.0703125 C1.41851562 7.04710937 0.71984375 7.02390625 0 7 C0 4.69 0 2.38 0 0 Z " fill="#F6F6F6" transform="translate(176,363)"/>
<path d="M0 0 C3.375 -0.125 3.375 -0.125 7 0 C9 2 9 2 9.1875 5.0625 C9 8 9 8 8 9 C5.32941149 9.14115161 2.67567762 9.04247107 0 9 C0 6.03 0 3.06 0 0 Z " fill="#F5F5F5" transform="translate(407,363)"/>
<path d="M0 0 C3.10190545 4.65285818 4.33846504 9.41532676 4 15 C1.36 15 -1.28 15 -4 15 C-2.07289294 4.44191344 -2.07289294 4.44191344 0 0 Z " fill="#EFEFEF" transform="translate(134,365)"/>
</svg>
