<svg xmlns="http://www.w3.org/2000/svg" xmlns:xlink="http://www.w3.org/1999/xlink" width="500" zoomAndPan="magnify" viewBox="0 0 375 149.999998" height="200" preserveAspectRatio="xMidYMid meet" version="1.0"><defs><g/><clipPath id="63e7f30af0"><path d="M 1 45 L 105.75 45 L 105.75 133 L 1 133 Z M 1 45 " clip-rule="nonzero"/></clipPath></defs><rect x="-37.5" width="450" fill="#ffffff" y="-15" height="179.999997" fill-opacity="1"/><rect x="-37.5" width="450" fill="#ffffff" y="-15" height="179.999997" fill-opacity="1"/><path fill="#ff914d" d="M 65.820312 119.390625 C 81.320312 117.835938 124.453125 114.214844 111.839844 74.175781 C 99.222656 34.132812 79.625 15.875 49.417969 33.355469 C 19.207031 50.839844 12.71875 70.226562 25.335938 91.8125 C 37.949219 113.394531 43.566406 121.621094 65.820312 119.390625 " fill-opacity="1" fill-rule="nonzero"/><g clip-path="url(#63e7f30af0)"><path fill="#ffffff" d="M 59.136719 47.582031 C 55.386719 59.585938 71.789062 67.148438 70.53125 71.171875 C 63.984375 73.683594 56.746094 70.007812 49.867188 72.035156 C 44.234375 71.65625 38.71875 73.039062 33.6875 75.496094 C 27.648438 77.441406 23.675781 82.523438 19.054688 86.503906 C 15.640625 88.042969 14.632812 92.601562 12.351562 94.328125 C 8.738281 93.828125 0.0195312 94.027344 4.507812 100.527344 C 5.707031 102.863281 10.164062 106.730469 11.980469 105 C 9.636719 107.800781 7.285156 106.390625 5.765625 109.828125 C 3.699219 113.929688 3.261719 118.761719 1.328125 122.816406 C 0.804688 125.710938 1.574219 133.746094 5.222656 131.921875 C 12.386719 127.523438 6.941406 112.679688 24.203125 114.128906 C 28.703125 113.703125 31.871094 109.75 35.316406 107.191406 C 37.992188 106.375 41.210938 104.453125 43.496094 103.1875 C 48.628906 100.449219 66.578125 97.417969 68.148438 98.332031 C 73.453125 99.832031 79.222656 99.300781 84.417969 101.441406 C 87.082031 102.871094 95.4375 107.007812 94.808594 101.339844 C 94.464844 98.886719 88.15625 95.929688 93.648438 97.398438 C 97.460938 97.933594 103.371094 101.371094 105.722656 96.964844 C 105.535156 92.191406 100.621094 95.078125 98.324219 93.53125 C 95.832031 92.613281 94.789062 91.847656 91.625 91.15625 C 85.742188 90.472656 90.683594 86.207031 94.171875 86.382812 C 99.964844 86.097656 98.167969 78.042969 95.71875 75.316406 C 93.265625 70.195312 88.011719 67.429688 82.726562 66.070312 C 80.414062 61.296875 78.53125 56.183594 75.140625 52.0625 C 72.777344 49.757812 67.207031 47.671875 65.179688 49.824219 C 64.121094 50.171875 60.832031 42.300781 59.136719 47.578125 Z M 59.136719 47.582031 " fill-opacity="1" fill-rule="nonzero"/></g><g fill="#545454" fill-opacity="1"><g transform="translate(125.31063, 89.957348)"><g><path d="M 18.5625 -20.21875 L 18.5625 0 L 9.828125 0 L 9.828125 -20.21875 L 0.90625 -20.21875 L 0.90625 -27.171875 L 27.4375 -27.171875 L 27.4375 -20.21875 Z M 18.5625 -20.21875 "/></g></g></g><g fill="#545454" fill-opacity="1"><g transform="translate(153.815647, 89.957348)"><g><path d="M 21.125 0 L 19.984375 -3.828125 L 10.46875 -3.828125 L 9.3125 0 L 0.390625 0 L 10.3125 -27.171875 L 20.453125 -27.171875 L 30.359375 0 Z M 12.28125 -9.90625 L 18.15625 -9.90625 L 15.3125 -19.578125 L 15.15625 -19.578125 Z M 12.28125 -9.90625 "/></g></g></g><g fill="#545454" fill-opacity="1"><g transform="translate(184.531579, 89.957348)"><g><path d="M 21 -27.171875 C 22.375 -27.171875 23.632812 -26.882812 24.78125 -26.3125 C 25.925781 -25.75 26.832031 -24.953125 27.5 -23.921875 C 28.164062 -22.898438 28.5 -21.757812 28.5 -20.5 C 28.5 -17.15625 26.988281 -15.046875 23.96875 -14.171875 L 23.96875 -14.015625 C 27.414062 -13.222656 29.140625 -10.957031 29.140625 -7.21875 C 29.140625 -5.800781 28.789062 -4.546875 28.09375 -3.453125 C 27.394531 -2.359375 26.441406 -1.507812 25.234375 -0.90625 C 24.023438 -0.300781 22.695312 0 21.25 0 L 2.921875 0 L 2.921875 -27.171875 Z M 11.640625 -16.578125 L 17.65625 -16.578125 C 18.226562 -16.578125 18.703125 -16.78125 19.078125 -17.1875 C 19.460938 -17.601562 19.65625 -18.113281 19.65625 -18.71875 L 19.65625 -19.109375 C 19.65625 -19.691406 19.457031 -20.1875 19.0625 -20.59375 C 18.675781 -21 18.207031 -21.203125 17.65625 -21.203125 L 11.640625 -21.203125 Z M 11.640625 -6.3125 L 18.28125 -6.3125 C 18.863281 -6.3125 19.34375 -6.515625 19.71875 -6.921875 C 20.101562 -7.335938 20.296875 -7.847656 20.296875 -8.453125 L 20.296875 -8.84375 C 20.296875 -9.445312 20.101562 -9.953125 19.71875 -10.359375 C 19.34375 -10.773438 18.863281 -10.984375 18.28125 -10.984375 L 11.640625 -10.984375 Z M 11.640625 -6.3125 "/></g></g></g><g fill="#545454" fill-opacity="1"><g transform="translate(215.247511, 89.957348)"><g><path d="M 2.921875 -27.171875 L 11.640625 -27.171875 L 11.640625 -6.953125 L 25.578125 -6.953125 L 25.578125 0 L 2.921875 0 Z M 2.921875 -27.171875 "/></g></g></g><g fill="#545454" fill-opacity="1"><g transform="translate(241.581088, 89.957348)"><g><path d="M 2.921875 -27.171875 L 26.421875 -27.171875 L 26.421875 -20.65625 L 11.640625 -20.65625 L 11.640625 -16.90625 L 24.28125 -16.90625 L 24.28125 -10.65625 L 11.640625 -10.65625 L 11.640625 -6.515625 L 26.6875 -6.515625 L 26.6875 0 L 2.921875 0 Z M 2.921875 -27.171875 "/></g></g></g><g fill="#545454" fill-opacity="1"><g transform="translate(270.086106, 89.957348)"><g><path d="M 21.25 0 L 21.25 -10.3125 L 11.640625 -10.3125 L 11.640625 0 L 2.921875 0 L 2.921875 -27.171875 L 11.640625 -27.171875 L 11.640625 -17.25 L 21.25 -17.25 L 21.25 -27.171875 L 29.96875 -27.171875 L 29.96875 0 Z M 21.25 0 "/></g></g></g><g fill="#545454" fill-opacity="1"><g transform="translate(302.973477, 89.957348)"><g><path d="M 16.421875 -27.640625 C 21.109375 -27.640625 24.726562 -26.441406 27.28125 -24.046875 C 29.832031 -21.648438 31.109375 -18.160156 31.109375 -13.578125 C 31.109375 -9.003906 29.832031 -5.519531 27.28125 -3.125 C 24.726562 -0.726562 21.109375 0.46875 16.421875 0.46875 C 11.734375 0.46875 8.117188 -0.71875 5.578125 -3.09375 C 3.046875 -5.476562 1.78125 -8.972656 1.78125 -13.578125 C 1.78125 -18.191406 3.046875 -21.6875 5.578125 -24.0625 C 8.117188 -26.445312 11.734375 -27.640625 16.421875 -27.640625 Z M 16.421875 -21.125 C 14.554688 -21.125 13.132812 -20.554688 12.15625 -19.421875 C 11.1875 -18.296875 10.703125 -16.769531 10.703125 -14.84375 L 10.703125 -12.3125 C 10.703125 -10.394531 11.1875 -8.867188 12.15625 -7.734375 C 13.132812 -6.609375 14.554688 -6.046875 16.421875 -6.046875 C 18.296875 -6.046875 19.722656 -6.609375 20.703125 -7.734375 C 21.691406 -8.867188 22.1875 -10.394531 22.1875 -12.3125 L 22.1875 -14.84375 C 22.1875 -16.769531 21.691406 -18.296875 20.703125 -19.421875 C 19.722656 -20.554688 18.296875 -21.125 16.421875 -21.125 Z M 16.421875 -21.125 "/></g></g></g><g fill="#545454" fill-opacity="1"><g transform="translate(335.860838, 89.957348)"><g><path d="M 18.15625 -27.171875 C 19.84375 -27.171875 21.34375 -26.78125 22.65625 -26 C 23.976562 -25.21875 25.003906 -24.148438 25.734375 -22.796875 C 26.472656 -21.441406 26.84375 -19.921875 26.84375 -18.234375 L 26.84375 -17.734375 C 26.84375 -16.046875 26.472656 -14.515625 25.734375 -13.140625 C 25.003906 -11.773438 23.976562 -10.703125 22.65625 -9.921875 C 21.34375 -9.148438 19.84375 -8.765625 18.15625 -8.765625 L 11.640625 -8.765625 L 11.640625 0 L 2.921875 0 L 2.921875 -27.171875 Z M 11.640625 -15.125 L 15.234375 -15.125 C 16.160156 -15.125 16.851562 -15.359375 17.3125 -15.828125 C 17.769531 -16.304688 18 -16.953125 18 -17.765625 L 18 -18.078125 C 18 -18.921875 17.769531 -19.570312 17.3125 -20.03125 C 16.851562 -20.5 16.160156 -20.734375 15.234375 -20.734375 L 11.640625 -20.734375 Z M 11.640625 -15.125 "/></g></g></g></svg>