<svg xmlns="http://www.w3.org/2000/svg" xmlns:xlink="http://www.w3.org/1999/xlink" width="500" zoomAndPan="magnify" viewBox="0 0 375 374.999991" height="500" preserveAspectRatio="xMidYMid meet" version="1.0"><defs><g/><clipPath id="79e48f3d7d"><path d="M 57 97 L 267.082031 97 L 267.082031 271 L 57 271 Z M 57 97 " clip-rule="nonzero"/></clipPath></defs><rect x="-37.5" width="450" fill="#ffffff" y="-37.499999" height="449.999989" fill-opacity="1"/><rect x="-37.5" width="450" fill="#000000" y="-37.499999" height="449.999989" fill-opacity="1"/><path fill="#ff914d" d="M 187.582031 245.28125 C 218.683594 242.160156 305.246094 234.894531 279.929688 154.527344 C 254.613281 74.164062 215.285156 37.511719 154.660156 72.601562 C 94.035156 107.695312 81.015625 146.605469 106.332031 189.925781 C 131.648438 233.246094 142.921875 249.761719 187.582031 245.28125 " fill-opacity="1" fill-rule="nonzero"/><g clip-path="url(#79e48f3d7d)"><path fill="#000000" d="M 173.855469 100.96875 C 166.351562 125.078125 199.164062 140.269531 196.640625 148.347656 C 183.550781 153.386719 169.074219 146.007812 155.320312 150.074219 C 144.050781 149.320312 133.015625 152.09375 122.960938 157.03125 C 110.875 160.9375 102.933594 171.144531 93.6875 179.136719 C 86.867188 182.226562 84.847656 191.382812 80.289062 194.851562 C 73.058594 193.84375 55.625 194.242188 64.597656 207.296875 C 67 211.988281 75.910156 219.75 79.542969 216.277344 C 74.859375 221.902344 70.15625 219.070312 67.113281 225.96875 C 62.976562 234.214844 62.101562 243.910156 58.238281 252.054688 C 57.195312 257.871094 58.730469 274.003906 66.03125 270.34375 C 80.355469 261.511719 69.460938 231.703125 103.992188 234.613281 C 112.988281 233.757812 119.328125 225.820312 126.214844 220.679688 C 131.570312 219.035156 138.007812 215.179688 142.578125 212.640625 C 152.835938 207.140625 188.738281 201.054688 191.882812 202.890625 C 202.488281 205.898438 214.027344 204.835938 224.414062 209.136719 C 229.746094 212.007812 246.460938 220.308594 245.199219 208.929688 C 244.515625 204 231.894531 198.0625 242.878906 201.011719 C 250.507812 202.089844 262.320312 208.992188 267.027344 200.140625 C 266.652344 190.558594 256.824219 196.355469 252.230469 193.25 C 247.246094 191.40625 245.15625 189.863281 238.832031 188.480469 C 227.066406 187.105469 236.945312 178.539062 243.929688 178.890625 C 255.511719 178.320312 251.917969 162.144531 247.019531 156.667969 C 242.113281 146.386719 231.609375 140.832031 221.035156 138.101562 C 216.410156 128.519531 212.644531 118.25 205.863281 109.96875 C 201.136719 105.339844 189.996094 101.152344 185.945312 105.480469 C 183.828125 106.175781 177.25 90.371094 173.855469 100.96875 Z M 173.855469 100.96875 " fill-opacity="1" fill-rule="nonzero"/></g><g fill="#ffffff" fill-opacity="1"><g transform="translate(50.582987, 295.958623)"><g><path d="M 21.265625 -23.15625 L 21.265625 0 L 11.265625 0 L 11.265625 -23.15625 L 1.046875 -23.15625 L 1.046875 -31.125 L 31.4375 -31.125 L 31.4375 -23.15625 Z M 21.265625 -23.15625 "/></g></g></g><g fill="#ffffff" fill-opacity="1"><g transform="translate(83.233688, 295.958623)"><g><path d="M 24.203125 0 L 22.890625 -4.390625 L 11.984375 -4.390625 L 10.671875 0 L 0.453125 0 L 11.8125 -31.125 L 23.4375 -31.125 L 34.78125 0 Z M 14.0625 -11.359375 L 20.8125 -11.359375 L 17.546875 -22.4375 L 17.375 -22.4375 Z M 14.0625 -11.359375 "/></g></g></g><g fill="#ffffff" fill-opacity="1"><g transform="translate(118.416852, 295.958623)"><g><path d="M 24.0625 -31.125 C 25.632812 -31.125 27.078125 -30.796875 28.390625 -30.140625 C 29.703125 -29.492188 30.738281 -28.582031 31.5 -27.40625 C 32.269531 -26.226562 32.65625 -24.921875 32.65625 -23.484375 C 32.65625 -19.648438 30.921875 -17.234375 27.453125 -16.234375 L 27.453125 -16.0625 C 31.410156 -15.15625 33.390625 -12.5625 33.390625 -8.28125 C 33.390625 -6.644531 32.988281 -5.203125 32.1875 -3.953125 C 31.382812 -2.703125 30.289062 -1.726562 28.90625 -1.03125 C 27.519531 -0.34375 26 0 24.34375 0 L 3.34375 0 L 3.34375 -31.125 Z M 13.34375 -19 L 20.21875 -19 C 20.882812 -19 21.4375 -19.234375 21.875 -19.703125 C 22.3125 -20.171875 22.53125 -20.75 22.53125 -21.4375 L 22.53125 -21.890625 C 22.53125 -22.554688 22.300781 -23.125 21.84375 -23.59375 C 21.394531 -24.0625 20.851562 -24.296875 20.21875 -24.296875 L 13.34375 -24.296875 Z M 13.34375 -7.234375 L 20.9375 -7.234375 C 21.601562 -7.234375 22.15625 -7.46875 22.59375 -7.9375 C 23.03125 -8.40625 23.25 -8.988281 23.25 -9.6875 L 23.25 -10.125 C 23.25 -10.820312 23.03125 -11.40625 22.59375 -11.875 C 22.15625 -12.34375 21.601562 -12.578125 20.9375 -12.578125 L 13.34375 -12.578125 Z M 13.34375 -7.234375 "/></g></g></g><g fill="#ffffff" fill-opacity="1"><g transform="translate(153.600017, 295.958623)"><g><path d="M 3.34375 -31.125 L 13.34375 -31.125 L 13.34375 -7.96875 L 29.3125 -7.96875 L 29.3125 0 L 3.34375 0 Z M 3.34375 -31.125 "/></g></g></g><g fill="#ffffff" fill-opacity="1"><g transform="translate(183.763471, 295.958623)"><g><path d="M 3.34375 -31.125 L 30.265625 -31.125 L 30.265625 -23.65625 L 13.34375 -23.65625 L 13.34375 -19.359375 L 27.8125 -19.359375 L 27.8125 -12.21875 L 13.34375 -12.21875 L 13.34375 -7.46875 L 30.578125 -7.46875 L 30.578125 0 L 3.34375 0 Z M 3.34375 -31.125 "/></g></g></g><g fill="#ffffff" fill-opacity="1"><g transform="translate(216.414172, 295.958623)"><g><path d="M 24.34375 0 L 24.34375 -11.8125 L 13.34375 -11.8125 L 13.34375 0 L 3.34375 0 L 3.34375 -31.125 L 13.34375 -31.125 L 13.34375 -19.765625 L 24.34375 -19.765625 L 24.34375 -31.125 L 34.328125 -31.125 L 34.328125 0 Z M 24.34375 0 "/></g></g></g><g fill="#ffffff" fill-opacity="1"><g transform="translate(254.084583, 295.958623)"><g><path d="M 18.8125 -31.671875 C 24.1875 -31.671875 28.332031 -30.296875 31.25 -27.546875 C 34.175781 -24.804688 35.640625 -20.8125 35.640625 -15.5625 C 35.640625 -10.3125 34.175781 -6.3125 31.25 -3.5625 C 28.332031 -0.820312 24.1875 0.546875 18.8125 0.546875 C 13.445312 0.546875 9.304688 -0.816406 6.390625 -3.546875 C 3.484375 -6.273438 2.03125 -10.28125 2.03125 -15.5625 C 2.03125 -20.84375 3.484375 -24.847656 6.390625 -27.578125 C 9.304688 -30.304688 13.445312 -31.671875 18.8125 -31.671875 Z M 18.8125 -24.203125 C 16.675781 -24.203125 15.050781 -23.550781 13.9375 -22.25 C 12.820312 -20.957031 12.265625 -19.210938 12.265625 -17.015625 L 12.265625 -14.109375 C 12.265625 -11.910156 12.820312 -10.160156 13.9375 -8.859375 C 15.050781 -7.566406 16.675781 -6.921875 18.8125 -6.921875 C 20.957031 -6.921875 22.59375 -7.566406 23.71875 -8.859375 C 24.851562 -10.160156 25.421875 -11.910156 25.421875 -14.109375 L 25.421875 -17.015625 C 25.421875 -19.210938 24.851562 -20.957031 23.71875 -22.25 C 22.59375 -23.550781 20.957031 -24.203125 18.8125 -24.203125 Z M 18.8125 -24.203125 "/></g></g></g><g fill="#ffffff" fill-opacity="1"><g transform="translate(291.754983, 295.958623)"><g><path d="M 20.8125 -31.125 C 22.738281 -31.125 24.453125 -30.675781 25.953125 -29.78125 C 27.460938 -28.894531 28.640625 -27.675781 29.484375 -26.125 C 30.335938 -24.570312 30.765625 -22.828125 30.765625 -20.890625 L 30.765625 -20.3125 C 30.765625 -18.382812 30.335938 -16.632812 29.484375 -15.0625 C 28.640625 -13.488281 27.460938 -12.257812 25.953125 -11.375 C 24.453125 -10.488281 22.738281 -10.046875 20.8125 -10.046875 L 13.34375 -10.046875 L 13.34375 0 L 3.34375 0 L 3.34375 -31.125 Z M 13.34375 -17.328125 L 17.453125 -17.328125 C 18.515625 -17.328125 19.304688 -17.597656 19.828125 -18.140625 C 20.359375 -18.679688 20.625 -19.421875 20.625 -20.359375 L 20.625 -20.71875 C 20.625 -21.6875 20.359375 -22.429688 19.828125 -22.953125 C 19.304688 -23.484375 18.515625 -23.75 17.453125 -23.75 L 13.34375 -23.75 Z M 13.34375 -17.328125 "/></g></g></g></svg>