<?xml version="1.0" encoding="UTF-8"?>
<svg version="1.1" xmlns="http://www.w3.org/2000/svg" width="500" height="500">
<path d="M0 0 C165 0 330 0 500 0 C500 165 500 330 500 500 C335 500 170 500 0 500 C0 335 0 170 0 0 Z " fill="#545454" transform="translate(0,0)"/>
<path d="M0 0 C37.80545475 28.76265146 63.99606813 85.01984398 71.04418945 131.24829102 C71.7676093 136.99465389 71.89420461 142.71364213 71.8984375 148.5 C71.91068359 149.37720703 71.92292969 150.25441406 71.93554688 151.15820312 C71.97485643 168.93922696 65.23555666 184.84307579 53.140625 197.8203125 C46.65037148 204.00781366 39.55711844 208.76062838 31.7109375 213.0625 C30.65132812 213.64644531 29.59171875 214.23039063 28.5 214.83203125 C6.80832497 225.82678187 -17.42077759 229.90326353 -41.2890625 233.0625 C-42.25457031 233.19382324 -43.22007812 233.32514648 -44.21484375 233.46044922 C-71.67536712 237.08625536 -99.81077494 237.82558351 -122.72265625 220.32421875 C-129.22529188 215.08643494 -134.73631581 209.04337825 -139.2890625 202.0625 C-137.84295312 199.17028123 -135.68865792 199.12461352 -132.78125 198.10546875 C-129.86423014 196.88470966 -127.29906947 195.33677151 -124.6015625 193.6875 C-108.78228063 184.32185551 -90.2582687 180.42333954 -72.125 178.421875 C-69.21818475 178.146904 -69.21818475 178.146904 -66.2890625 177.0625 C-57.22445728 176.45819299 -49.12335772 177.28055234 -40.2578125 179.2734375 C-35.86334418 180.21415617 -31.4450962 180.63313582 -26.9765625 181.0625 C-19.05836115 181.86147764 -11.67990977 182.94083261 -4.7265625 187.0625 C1.9019102 190.91906593 8.04371998 192.72346703 15.7109375 192.0625 C18.96859505 190.39683664 18.96859505 190.39683664 19.2734375 187.375 C18.49113942 182.76813352 16.06067087 180.21263786 12.7109375 177.0625 C12.0509375 176.7325 11.3909375 176.4025 10.7109375 176.0625 C10.7109375 175.4025 10.7109375 174.7425 10.7109375 174.0625 C17.95539019 174.64673006 25.14027192 175.77716721 31.7109375 179.0625 C36.76694922 179.61720632 40.68475832 179.5402041 45.3359375 177.375 C47.90576095 175.29709385 47.90576095 175.29709385 48.2734375 172.5 C47.60338505 169.59643938 47.08590912 168.83257279 44.7109375 167.0625 C41.70198747 166.51558498 41.70198747 166.51558498 38.2109375 166.3125 C30.73330512 165.58272483 24.18763977 163.30870317 17.234375 160.53808594 C13.04726856 158.87493325 9.22716878 157.58999581 4.7109375 157.0625 C4.3809375 155.4125 4.0509375 153.7625 3.7109375 152.0625 C8.88882558 146.64925337 12.48201751 145.32315268 19.94140625 144.77734375 C23.70622771 143.80560563 24.74587519 142.3696678 26.7109375 139.0625 C28.9232362 128.36014588 24.72502307 120.37320169 19.140625 111.59375 C14.20295411 104.62853309 7.3655857 97.98471601 -1.16796875 96.07421875 C-6.80819036 94.74984058 -11.51414347 93.64030887 -14.94921875 88.65136719 C-18.15991651 82.60154219 -20.60877841 76.23916482 -23.11035156 69.87207031 C-27.58264938 59.2119205 -34.30012883 52.07239922 -44.66015625 47.0390625 C-49.41247563 45.27371355 -53.98842892 45.32787401 -58.796875 46.86328125 C-60.03050781 46.96189453 -60.03050781 46.96189453 -61.2890625 47.0625 C-63.38671875 45.19140625 -63.38671875 45.19140625 -65.3515625 42.625 C-67.232835 40.08045343 -67.232835 40.08045343 -69.2890625 38.0625 C-70.6090625 38.0625 -71.9290625 38.0625 -73.2890625 38.0625 C-76.63870224 45.45962108 -77.68923282 52.11004573 -75.4453125 60.046875 C-70.14250438 73.87717185 -59.99954788 83.87791656 -49.87963867 94.31420898 C-45.34084301 99.30305254 -45.34084301 99.30305254 -45.1015625 102.8125 C-45.1634375 103.555 -45.2253125 104.2975 -45.2890625 105.0625 C-51.17278286 106.75985605 -56.36940324 107.34726406 -62.4765625 107.25 C-63.64735352 107.2490332 -63.64735352 107.2490332 -64.84179688 107.24804688 C-67.89237909 107.22475999 -70.74480459 107.17447651 -73.73828125 106.55859375 C-77.77607905 105.77329464 -81.81147395 105.91885187 -85.9140625 105.9375 C-86.77257812 105.93363281 -87.63109375 105.92976563 -88.515625 105.92578125 C-89.340625 105.92707031 -90.165625 105.92835938 -91.015625 105.9296875 C-92.13831787 105.93137939 -92.13831787 105.93137939 -93.28369141 105.93310547 C-95.49727868 105.99052443 -95.49727868 105.99052443 -98.2890625 107.0625 C-99.9195481 107.2423938 -101.55483123 107.38053063 -103.19140625 107.4921875 C-130.54873172 109.50150836 -153.74365339 117.01544002 -172.80078125 137.6640625 C-174.2890625 139.0625 -174.2890625 139.0625 -176.2890625 139.0625 C-176.94170679 137.04385603 -177.58584996 135.02246273 -178.2265625 133 C-178.58621094 131.87464844 -178.94585937 130.74929687 -179.31640625 129.58984375 C-185.14501116 108.45237293 -182.12300662 85.53956684 -171.63671875 66.51074219 C-151.23859882 31.59286961 -108.01707377 -0.48926814 -68.76953125 -10.79174805 C-44.12229809 -16.88782276 -21.24756026 -14.29265315 0 0 Z " fill="#FD904D" transform="translate(307.2890625,92.9375)"/>
<path d="M0 0 C4.26573303 2.96640056 7.25583805 5.97250327 8.8125 11 C9.68109111 17.97026418 10.33294052 25.48770045 6.625 31.75 C2.74368076 36.69977229 -1.14712477 39.26896139 -7.1875 41 C-15.79468266 42.03766796 -23.09670845 41.23627683 -30.1875 36 C-35.85650655 29.96914197 -35.60528313 22.67542566 -35.46875 14.90625 C-35.02033641 8.6782834 -33.28022544 5.98540619 -28.75 1.6875 C-20.86143899 -3.50740603 -8.54641725 -4.28041471 0 0 Z " fill="#FBFBFB" transform="translate(377.1875,355)"/>
<path d="M0 0 C7.486875 -0.12375 7.486875 -0.12375 15.125 -0.25 C17.47069092 -0.30462402 17.47069092 -0.30462402 19.86376953 -0.36035156 C21.10755371 -0.3703418 22.35133789 -0.38033203 23.6328125 -0.390625 C24.90012207 -0.41157227 26.16743164 -0.43251953 27.47314453 -0.45410156 C32.49043878 0.19190199 35.48206591 2.48206591 39 6 C39.75436164 10.95598056 39.72634458 14.8650866 37 19.125 C36.34 19.74375 35.68 20.3625 35 21 C35.825 21.433125 36.65 21.86625 37.5 22.3125 C40.84976209 25.91349424 40.67160568 28.38714403 40.859375 33.1484375 C39.77578816 36.74397566 38.54190102 38.51830257 35.59423828 40.83544922 C29.64373487 43.50662382 22.44585167 42.58516425 16.0625 42.375 C8.1115625 42.189375 8.1115625 42.189375 0 42 C0 28.14 0 14.28 0 0 Z " fill="#F9F9F9" transform="translate(162,353)"/>
<path d="M0 0 C12.21 0 24.42 0 37 0 C37 3.63 37 7.26 37 11 C29.41 11 21.82 11 14 11 C14 12.65 14 14.3 14 16 C20.27 16 26.54 16 33 16 C33 19.3 33 22.6 33 26 C26.73 26 20.46 26 14 26 C14 27.98 14 29.96 14 32 C21.59 32 29.18 32 37 32 C37 35.3 37 38.6 37 42 C24.79 42 12.58 42 0 42 C0 28.14 0 14.28 0 0 Z " fill="#F6F6F6" transform="translate(249,353)"/>
<path d="M0 0 C4.29 0 8.58 0 13 0 C13 4.95 13 9.9 13 15 C17.95 15 22.9 15 28 15 C28 10.05 28 5.1 28 0 C32.29 0 36.58 0 41 0 C41 13.53 41 27.06 41 41 C36.71 41 32.42 41 28 41 C28 35.72 28 30.44 28 25 C23.05 25 18.1 25 13 25 C13 30.28 13 35.56 13 41 C8.71 41 4.42 41 0 41 C0 27.47 0 13.94 0 0 Z " fill="#FFFFFF" transform="translate(293,354)"/>
<path d="M0 0 C1.39456452 0.00667256 2.78911118 0.01863093 4.18359375 0.03515625 C4.89451172 0.03966797 5.60542969 0.04417969 6.33789062 0.04882812 C8.09899388 0.06064761 9.86005411 0.07858362 11.62109375 0.09765625 C15.00811896 7.4039535 17.85889627 14.87154046 20.62255859 22.42919922 C21.37797754 24.4914486 22.14188778 26.5504261 22.90625 28.609375 C23.38983683 29.92559255 23.87292817 31.24199227 24.35546875 32.55859375 C24.79084961 33.74243652 25.22623047 34.9262793 25.67480469 36.14599609 C26.62109375 39.09765625 26.62109375 39.09765625 26.62109375 42.09765625 C22.00109375 42.09765625 17.38109375 42.09765625 12.62109375 42.09765625 C12.29109375 40.11765625 11.96109375 38.13765625 11.62109375 36.09765625 C6.67109375 36.42765625 1.72109375 36.75765625 -3.37890625 37.09765625 C-4.36890625 39.57265625 -4.36890625 39.57265625 -5.37890625 42.09765625 C-9.66890625 42.09765625 -13.95890625 42.09765625 -18.37890625 42.09765625 C-16.92644026 33.98577071 -14.07919711 26.47201914 -11.15600586 18.80175781 C-10.30869531 16.57741364 -9.47106495 14.34959839 -8.63476562 12.12109375 C-8.10081497 10.70682176 -7.56632958 9.29275151 -7.03125 7.87890625 C-6.78020004 7.21234009 -6.52915009 6.54577393 -6.27049255 5.85900879 C-4.0763221 0.11781278 -4.0763221 0.11781278 0 0 Z " fill="#FAFAFA" transform="translate(130.37890625,352.90234375)"/>
<path d="M0 0 C6.249375 -0.0928125 6.249375 -0.0928125 12.625 -0.1875 C13.92775879 -0.21481201 15.23051758 -0.24212402 16.57275391 -0.27026367 C24.32087605 -0.32604439 28.94599477 0.27795186 34.875 5.5625 C37.53087834 9.01772037 37.65769278 12.27413142 37.4140625 16.53125 C36.72923032 20.61440037 35.60762183 22.72375719 33 26 C26.94836971 29.90834456 21.06039011 29.23799068 14 29 C14 33.29 14 37.58 14 42 C9.38 42 4.76 42 0 42 C0 28.14 0 14.28 0 0 Z " fill="#F7F7F7" transform="translate(393,353)"/>
<path d="M0 0 C13.53 0 27.06 0 41 0 C41 3.63 41 7.26 41 11 C36.38 11 31.76 11 27 11 C27 21.23 27 31.46 27 42 C22.38 42 17.76 42 13 42 C13 31.77 13 21.54 13 11 C8.71 11 4.42 11 0 11 C0 7.37 0 3.74 0 0 Z " fill="#F6F6F6" transform="translate(69,353)"/>
<path d="M0 0 C4.62 0 9.24 0 14 0 C14 10.23 14 20.46 14 31 C20.93 31 27.86 31 35 31 C35 34.63 35 38.26 35 42 C23.45 42 11.9 42 0 42 C0 28.14 0 14.28 0 0 Z " fill="#F7F7F7" transform="translate(209,353)"/>
<path d="M0 0 C2.75271689 0.76032704 4.46606196 2.23576015 6.08984375 4.55859375 C7.77958991 8.49873917 7.687349 12.36707669 6.9375 16.53515625 C5.5940673 19.64067277 4.04217254 21.98281998 0.9375 23.53515625 C-2.89441838 23.96092496 -4.59199683 23.8383694 -7.875 21.72265625 C-11.12244968 18.47520657 -11.27991943 15.58453375 -11.4375 11.16015625 C-11.38496492 7.19375803 -11.22559222 5.79508447 -9.0625 2.34765625 C-5.77252679 0.3599641 -3.79622931 -0.2804033 0 0 Z " fill="#5A5A5A" transform="translate(366.0625,362.46484375)"/>
<path d="M0 0 C1.79133978 -0.05391993 3.58313899 -0.09275571 5.375 -0.125 C6.37273437 -0.14820313 7.37046875 -0.17140625 8.3984375 -0.1953125 C11 0 11 0 13 2 C12.67 3.65 12.34 5.3 12 7 C8.04 7 4.08 7 0 7 C0 4.69 0 2.38 0 0 Z " fill="#5C5C5C" transform="translate(176,378)"/>
<path d="M0 0 C3.63 0 7.26 0 11 0 C11.33 1.65 11.66 3.3 12 5 C10 7 10 7 7.6171875 7.1953125 C6.71226562 7.17210937 5.80734375 7.14890625 4.875 7.125 C3.50988281 7.09792969 3.50988281 7.09792969 2.1171875 7.0703125 C1.41851562 7.04710937 0.71984375 7.02390625 0 7 C0 4.69 0 2.38 0 0 Z " fill="#5E5E5E" transform="translate(176,363)"/>
<path d="M0 0 C3.2645028 3.2645028 3.93236055 7.41047299 4.125 11.9375 C4.08375 12.618125 4.0425 13.29875 4 14 C1.36 14 -1.28 14 -4 14 C-3.71572583 12.41532272 -3.42225182 10.8322943 -3.125 9.25 C-2.96257812 8.36828125 -2.80015625 7.4865625 -2.6328125 6.578125 C-2.03203736 4.13052256 -1.22002883 2.19400143 0 0 Z " fill="#656565" transform="translate(134,366)"/>
<path d="M0 0 C6.15234375 -0.09765625 6.15234375 -0.09765625 8 0 C9 1 9 1 9.0625 4.0625 C9.041875 5.031875 9.02125 6.00125 9 7 C6.04335481 8.4783226 3.25770263 8.06032783 0 8 C0 5.36 0 2.72 0 0 Z " fill="#575757" transform="translate(407,364)"/>
</svg>
